<svg width="80" height="80" viewBox="0 0 80 80" fill="none" xmlns="http://www.w3.org/2000/svg">
<rect width="80" height="80" rx="24" fill="#C5DFFF"/>
<path d="M38.7497 30V53.1834C38.7497 54.3667 37.5497 55.1834 36.4663 54.7334C33.3663 53.4334 29.5163 52.3 26.783 51.9334L26.2663 51.8667C24.6497 51.6667 23.333 50.1834 23.333 48.5667V28.75C23.333 26.75 24.9497 25.1334 26.9497 25.1334H27.0663C30.1997 25.4 34.8163 26.8667 37.8663 28.5167C38.4163 28.8167 38.7497 29.3667 38.7497 30Z" fill="#2F8CFF"/>
<path d="M53.05 25.1334H52.95C52.55 25.1667 52.1167 25.2167 51.6667 25.3C49.6167 25.6334 47.1833 26.3334 45 27.2C43.9667 27.6167 43 28.0667 42.15 28.5167C41.6 28.8167 41.25 29.3834 41.25 30V53.1834C41.25 54.3667 42.45 55.1834 43.5333 54.7334C46.6333 53.4334 50.4833 52.3 53.2167 51.9334L53.7333 51.8667C55.35 51.6667 56.6667 50.1834 56.6667 48.5667V28.75C56.6667 26.75 55.05 25.1334 53.05 25.1334ZM52.1167 42.8834C52.1167 43.5334 51.65 43.8167 51.0833 43.5L49.3167 42.5167C49.1333 42.4167 48.8333 42.4167 48.6333 42.5167L46.8667 43.5C46.3 43.8167 45.8333 43.5334 45.8333 42.8834V37.7667C45.8333 37 46.4667 36.3667 47.2333 36.3667H50.7333C51.5 36.3667 52.1333 37 52.1333 37.7667V42.8834H52.1167Z" fill="#2F8CFF"/>
</svg>
