<svg width="80" height="80" viewBox="0 0 80 80" fill="none" xmlns="http://www.w3.org/2000/svg">
<rect width="80" height="80" rx="24" fill="#C5DFFF"/>
<path d="M48.3337 56.6667H31.667C30.9837 56.6667 30.417 56.1 30.417 55.4167C30.417 54.7334 30.9837 54.1667 31.667 54.1667H48.3337C49.017 54.1667 49.5837 54.7334 49.5837 55.4167C49.5837 56.1 49.017 56.6667 48.3337 56.6667Z" fill="#2F8CFF"/>
<path d="M53.917 29.2L47.2504 33.9667C46.367 34.6 45.1004 34.2167 44.717 33.2L41.567 24.8C41.0337 23.35 38.9837 23.35 38.4504 24.8L35.2837 33.1834C34.9004 34.2167 33.6504 34.6 32.767 33.95L26.1004 29.1834C24.767 28.25 23.0004 29.5667 23.5504 31.1167L30.4837 50.5334C30.717 51.2 31.3504 51.6334 32.0504 51.6334H47.9337C48.6337 51.6334 49.267 51.1834 49.5004 50.5334L56.4337 31.1167C57.0004 29.5667 55.2337 28.25 53.917 29.2ZM44.167 44.5834H35.8337C35.1504 44.5834 34.5837 44.0167 34.5837 43.3334C34.5837 42.65 35.1504 42.0834 35.8337 42.0834H44.167C44.8504 42.0834 45.417 42.65 45.417 43.3334C45.417 44.0167 44.8504 44.5834 44.167 44.5834Z" fill="#2F8CFF"/>
</svg>
