<svg width="80" height="80" viewBox="0 0 80 80" fill="none" xmlns="http://www.w3.org/2000/svg">
<rect width="80" height="80" rx="24" fill="#C5DFFF"/>
<path d="M55.4171 50.7834L52.6671 51.4334C52.0504 51.5834 51.5671 52.05 51.4337 52.6667L50.8504 55.1167C50.5337 56.45 48.8337 56.8667 47.9504 55.8167L42.9671 50.0834C42.5671 49.6167 42.7837 48.8834 43.3837 48.7334C46.3337 48.0167 48.9837 46.3667 50.9337 44.0167C51.2504 43.6334 51.8171 43.5834 52.1671 43.9334L55.8671 47.6334C57.1337 48.9 56.6837 50.4834 55.4171 50.7834Z" fill="#2F8CFF"/>
<path d="M24.5003 50.7834L27.2503 51.4334C27.8669 51.5834 28.3503 52.05 28.4836 52.6667L29.0669 55.1167C29.3836 56.45 31.0836 56.8667 31.9669 55.8167L36.9503 50.0834C37.3503 49.6167 37.1336 48.8834 36.5336 48.7334C33.5836 48.0167 30.9336 46.3667 28.9836 44.0167C28.6669 43.6334 28.1003 43.5834 27.7503 43.9334L24.0503 47.6334C22.7836 48.9 23.2336 50.4834 24.5003 50.7834Z" fill="#2F8CFF"/>
<path d="M39.9997 23.3333C33.5497 23.3333 28.333 28.55 28.333 35C28.333 37.4166 29.0497 39.6333 30.283 41.4833C32.083 44.15 34.933 46.0333 38.2497 46.5166C38.8163 46.6166 39.3997 46.6666 39.9997 46.6666C40.5997 46.6666 41.183 46.6166 41.7497 46.5166C45.0663 46.0333 47.9163 44.15 49.7163 41.4833C50.9497 39.6333 51.6663 37.4166 51.6663 35C51.6663 28.55 46.4497 23.3333 39.9997 23.3333ZM45.0997 34.6333L43.7163 36.0166C43.483 36.25 43.3497 36.7 43.433 37.0333L43.833 38.75C44.1497 40.1 43.433 40.6333 42.233 39.9166L40.5663 38.9333C40.2663 38.75 39.7663 38.75 39.4663 38.9333L37.7997 39.9166C36.5997 40.6166 35.883 40.1 36.1997 38.75L36.5997 37.0333C36.6663 36.7166 36.5497 36.25 36.3163 36.0166L34.8997 34.6333C34.083 33.8166 34.3497 33 35.483 32.8166L37.2663 32.5166C37.5663 32.4666 37.9163 32.2 38.0497 31.9333L39.033 29.9666C39.5663 28.9 40.433 28.9 40.9663 29.9666L41.9497 31.9333C42.083 32.2 42.433 32.4666 42.7497 32.5166L44.533 32.8166C45.6497 33 45.9163 33.8166 45.0997 34.6333Z" fill="#2F8CFF"/>
</svg>
