<svg width="40" height="40" viewBox="0 0 40 40" fill="none" xmlns="http://www.w3.org/2000/svg">
<path d="M35.4171 30.7833L32.6671 31.4333C32.0504 31.5833 31.5671 32.05 31.4337 32.6667L30.8504 35.1167C30.5337 36.45 28.8337 36.8667 27.9504 35.8167L22.9671 30.0833C22.5671 29.6167 22.7837 28.8833 23.3837 28.7333C26.3337 28.0167 28.9837 26.3667 30.9337 24.0167C31.2504 23.6333 31.8171 23.5833 32.1671 23.9333L35.8671 27.6333C37.1337 28.9 36.6837 30.4833 35.4171 30.7833Z" fill="#2F8CFF"/>
<path d="M4.49929 30.7833L7.24929 31.4333C7.86596 31.5833 8.3493 32.05 8.48263 32.6667L9.06596 35.1167C9.38263 36.45 11.0826 36.8667 11.966 35.8167L16.9493 30.0833C17.3493 29.6167 17.1326 28.8833 16.5326 28.7333C13.5826 28.0167 10.9326 26.3667 8.98263 24.0167C8.66596 23.6333 8.09929 23.5833 7.74929 23.9333L4.04929 27.6333C2.78263 28.9 3.23263 30.4833 4.49929 30.7833Z" fill="#2F8CFF"/>
<path d="M20.0007 3.33334C13.5507 3.33334 8.33398 8.55001 8.33398 15C8.33398 17.4167 9.05065 19.6333 10.284 21.4833C12.084 24.15 14.934 26.0333 18.2507 26.5167C18.8173 26.6167 19.4007 26.6667 20.0007 26.6667C20.6007 26.6667 21.184 26.6167 21.7507 26.5167C25.0673 26.0333 27.9173 24.15 29.7173 21.4833C30.9507 19.6333 31.6673 17.4167 31.6673 15C31.6673 8.55001 26.4507 3.33334 20.0007 3.33334ZM25.1007 14.6333L23.7173 16.0167C23.484 16.25 23.3507 16.7 23.434 17.0333L23.834 18.75C24.1507 20.1 23.434 20.6333 22.234 19.9167L20.5673 18.9333C20.2673 18.75 19.7673 18.75 19.4673 18.9333L17.8007 19.9167C16.6007 20.6167 15.884 20.1 16.2007 18.75L16.6007 17.0333C16.6673 16.7167 16.5507 16.25 16.3173 16.0167L14.9007 14.6333C14.084 13.8167 14.3507 13 15.484 12.8167L17.2673 12.5167C17.5673 12.4667 17.9173 12.2 18.0507 11.9333L19.034 9.96668C19.5673 8.90001 20.434 8.90001 20.9673 9.96668L21.9507 11.9333C22.084 12.2 22.434 12.4667 22.7507 12.5167L24.534 12.8167C25.6507 13 25.9173 13.8167 25.1007 14.6333Z" fill="#2F8CFF"/>
</svg>
