<svg width="40" height="40" viewBox="0 0 40 40" fill="none" xmlns="http://www.w3.org/2000/svg">
<path d="M28.3337 36.6667H11.667C10.9837 36.6667 10.417 36.1 10.417 35.4167C10.417 34.7333 10.9837 34.1667 11.667 34.1667H28.3337C29.017 34.1667 29.5837 34.7333 29.5837 35.4167C29.5837 36.1 29.017 36.6667 28.3337 36.6667Z" fill="#2F8CFF"/>
<path d="M33.917 9.19999L27.2504 13.9667C26.367 14.6 25.1004 14.2167 24.717 13.2L21.567 4.79999C21.0337 3.34999 18.9837 3.34999 18.4504 4.79999L15.2837 13.1833C14.9004 14.2167 13.6504 14.6 12.767 13.95L6.10037 9.18333C4.76703 8.24999 3.00037 9.56666 3.55037 11.1167L10.4837 30.5333C10.717 31.2 11.3504 31.6333 12.0504 31.6333H27.9337C28.6337 31.6333 29.267 31.1833 29.5004 30.5333L36.4337 11.1167C37.0004 9.56666 35.2337 8.24999 33.917 9.19999ZM24.167 24.5833H15.8337C15.1504 24.5833 14.5837 24.0167 14.5837 23.3333C14.5837 22.65 15.1504 22.0833 15.8337 22.0833H24.167C24.8504 22.0833 25.417 22.65 25.417 23.3333C25.417 24.0167 24.8504 24.5833 24.167 24.5833Z" fill="#2F8CFF"/>
</svg>
