<svg width="40" height="40" viewBox="0 0 40 40" fill="none" xmlns="http://www.w3.org/2000/svg">
<path d="M8.33268 25C6.76602 25 5.31602 25.55 4.16602 26.4667C2.63268 27.6833 1.66602 29.5667 1.66602 31.6667C1.66602 32.9167 2.01602 34.1 2.63268 35.1C3.78268 37.0333 5.89935 38.3333 8.33268 38.3333C10.016 38.3333 11.5493 37.7167 12.716 36.6667C13.2327 36.2333 13.6827 35.7 14.0327 35.1C14.6493 34.1 14.9993 32.9167 14.9993 31.6667C14.9993 27.9833 12.016 25 8.33268 25ZM11.7827 30.95L8.23268 34.2333C7.99935 34.45 7.68268 34.5667 7.38268 34.5667C7.06602 34.5667 6.74935 34.45 6.49935 34.2L4.84935 32.55C4.36602 32.0667 4.36602 31.2667 4.84935 30.7833C5.33268 30.3 6.13268 30.3 6.61602 30.7833L7.41602 31.5833L10.0827 29.1167C10.5827 28.65 11.3827 28.6833 11.8493 29.1833C12.316 29.6833 12.2827 30.4833 11.7827 30.95Z" fill="#2F8CFF"/>
<path d="M24.7493 6.58332V12.9167H22.2493V6.58332C22.2493 6.13332 21.8493 5.91666 21.5827 5.91666C21.4993 5.91666 21.416 5.93332 21.3327 5.96666L8.11602 10.95C7.23268 11.2833 6.66602 12.1167 6.66602 13.0667V14.1833C5.14935 15.3167 4.16602 17.1333 4.16602 19.1833V13.0667C4.16602 11.0833 5.38268 9.31666 7.23268 8.61666L20.466 3.61666C20.8327 3.48332 21.216 3.41666 21.5827 3.41666C23.2493 3.41666 24.7493 4.76666 24.7493 6.58332Z" fill="#2F8CFF"/>
<path d="M35.8338 24.1667V25.8333C35.8338 26.2833 35.4838 26.65 35.0171 26.6667H32.5838C31.7005 26.6667 30.9005 26.0167 30.8338 25.15C30.7838 24.6333 30.9838 24.15 31.3171 23.8167C31.6171 23.5 32.0338 23.3333 32.4838 23.3333H35.0005C35.4838 23.35 35.8338 23.7167 35.8338 24.1667Z" fill="#2F8CFF"/>
<path d="M32.466 21.5833H34.166C35.0827 21.5833 35.8327 20.8333 35.8327 19.9167V19.1833C35.8327 15.7333 33.016 12.9167 29.566 12.9167H10.4327C9.01602 12.9167 7.71602 13.3833 6.66602 14.1833C5.14935 15.3167 4.16602 17.1333 4.16602 19.1833V22.15C4.16602 22.7833 4.83268 23.1833 5.43268 22.9833C6.36602 22.6667 7.34935 22.5 8.33268 22.5C13.3827 22.5 17.4993 26.6167 17.4993 31.6667C17.4993 32.8667 17.1827 34.1833 16.6827 35.35C16.416 35.95 16.8327 36.6667 17.4827 36.6667H29.566C33.016 36.6667 35.8327 33.85 35.8327 30.4V30.0833C35.8327 29.1667 35.0827 28.4167 34.166 28.4167H32.716C31.116 28.4167 29.5827 27.4333 29.166 25.8833C28.8327 24.6167 29.2327 23.3833 30.066 22.5833C30.6827 21.95 31.5327 21.5833 32.466 21.5833ZM23.3327 21.25H14.9993C14.316 21.25 13.7493 20.6833 13.7493 20C13.7493 19.3167 14.316 18.75 14.9993 18.75H23.3327C24.016 18.75 24.5827 19.3167 24.5827 20C24.5827 20.6833 24.016 21.25 23.3327 21.25Z" fill="#2F8CFF"/>
</svg>
