<svg width="40" height="40" viewBox="0 0 40 40" fill="none" xmlns="http://www.w3.org/2000/svg">
<path d="M28.3327 37.9167H11.666C10.9827 37.9167 10.416 37.35 10.416 36.6667C10.416 35.9833 10.9827 35.4167 11.666 35.4167H28.3327C29.016 35.4167 29.5827 35.9833 29.5827 36.6667C29.5827 37.35 29.016 37.9167 28.3327 37.9167Z" fill="#2F8CFF"/>
<path d="M30.0007 3.33334H10.0007C6.31732 3.33334 3.33398 6.31668 3.33398 10V25C3.33398 28.6833 6.31732 31.6667 10.0007 31.6667H30.0007C33.684 31.6667 36.6673 28.6833 36.6673 25V10C36.6673 6.31668 33.684 3.33334 30.0007 3.33334ZM16.6507 12.2C17.584 12.2 18.334 12.95 18.334 13.8667C18.334 14.7833 17.584 15.5333 16.6673 15.5333C15.7507 15.5333 15.0007 14.7833 15.0007 13.8667C15.0007 12.95 15.734 12.2 16.6507 12.2ZM11.4007 12.2C12.334 12.2 13.084 12.95 13.084 13.8667C13.084 14.7833 12.334 15.5333 11.4173 15.5333C10.5007 15.5333 9.75065 14.7833 9.75065 13.8667C9.75065 12.95 10.4673 12.2 11.4007 12.2ZM28.7673 24.7667H11.2673C10.5673 24.7667 10.0007 24.2 10.0007 23.5167C10.0007 22.8333 10.5507 22.2667 11.234 22.2667H28.784C29.4673 22.2667 30.034 22.8333 30.034 23.5167C30.034 24.2 29.4673 24.7667 28.7673 24.7667ZM28.7673 15.1167H22.634C21.9507 15.1167 21.384 14.55 21.384 13.8667C21.384 13.1833 21.9507 12.6167 22.634 12.6167H28.7673C29.4507 12.6167 30.0173 13.1833 30.0173 13.8667C30.0173 14.55 29.4673 15.1167 28.7673 15.1167Z" fill="#2F8CFF"/>
</svg>
