<svg width="80" height="80" viewBox="0 0 80 80" fill="none" xmlns="http://www.w3.org/2000/svg">
<rect width="80" height="80" rx="32" fill="#2F8CFF" fill-opacity="0.05"/>
<path d="M44.7503 26.5832V32.9165H42.2503V26.5832C42.2503 26.1332 41.8503 25.9165 41.5837 25.9165C41.5003 25.9165 41.417 25.9332 41.3337 25.9665L28.117 30.9498C27.2337 31.2832 26.667 32.1165 26.667 33.0665V34.1832C25.1503 35.3165 24.167 37.1332 24.167 39.1832V33.0665C24.167 31.0832 25.3837 29.3165 27.2337 28.6165L40.467 23.6165C40.8337 23.4832 41.217 23.4165 41.5837 23.4165C43.2503 23.4165 44.7503 24.7665 44.7503 26.5832Z" fill="#2F8CFF"/>
<path d="M55.8338 44.1668V45.8335C55.8338 46.2835 55.4838 46.6502 55.0171 46.6668H52.5838C51.7005 46.6668 50.9005 46.0168 50.8338 45.1502C50.7838 44.6335 50.9838 44.1502 51.3171 43.8168C51.6171 43.5002 52.0338 43.3335 52.4838 43.3335H55.0005C55.4838 43.3502 55.8338 43.7168 55.8338 44.1668Z" fill="#2F8CFF"/>
<path d="M52.467 41.5832H54.167C55.0837 41.5832 55.8337 40.8332 55.8337 39.9165V39.1832C55.8337 35.7332 53.017 32.9165 49.567 32.9165H30.4337C29.017 32.9165 27.717 33.3832 26.667 34.1832C25.1503 35.3165 24.167 37.1332 24.167 39.1832V50.3998C24.167 53.8498 26.9837 56.6665 30.4337 56.6665H49.567C53.017 56.6665 55.8337 53.8498 55.8337 50.3998V50.0832C55.8337 49.1665 55.0837 48.4165 54.167 48.4165H52.717C51.117 48.4165 49.5837 47.4332 49.167 45.8832C48.817 44.6165 49.2337 43.3998 50.067 42.5832C50.6837 41.9498 51.5337 41.5832 52.467 41.5832ZM43.3337 41.2498H31.667C30.9837 41.2498 30.417 40.6832 30.417 39.9998C30.417 39.3165 30.9837 38.7498 31.667 38.7498H43.3337C44.017 38.7498 44.5837 39.3165 44.5837 39.9998C44.5837 40.6832 44.017 41.2498 43.3337 41.2498Z" fill="#2F8CFF"/>
</svg>
