<svg width="80" height="80" viewBox="0 0 80 80" fill="none" xmlns="http://www.w3.org/2000/svg">
<rect width="80" height="80" rx="32" fill="#2F8CFF" fill-opacity="0.05"/>
<path d="M31.6673 23.3335H30.0007C25.0007 23.3335 23.334 26.3168 23.334 30.0002V31.6668V55.0002C23.334 56.3835 24.9007 57.1668 26.0007 56.3335L28.8507 54.2002C29.5173 53.7002 30.4507 53.7668 31.0507 54.3668L33.8173 57.1502C34.4673 57.8002 35.534 57.8002 36.184 57.1502L38.984 54.3502C39.5673 53.7668 40.5007 53.7002 41.1507 54.2002L44.0007 56.3335C45.1007 57.1502 46.6673 56.3668 46.6673 55.0002V26.6668C46.6673 24.8335 48.1673 23.3335 50.0007 23.3335H31.6673ZM29.9507 43.3502C29.034 43.3502 28.284 42.6002 28.284 41.6835C28.284 40.7668 29.034 40.0168 29.9507 40.0168C30.8673 40.0168 31.6173 40.7668 31.6173 41.6835C31.6173 42.6002 30.8673 43.3502 29.9507 43.3502ZM29.9507 36.6835C29.034 36.6835 28.284 35.9335 28.284 35.0168C28.284 34.1002 29.034 33.3502 29.9507 33.3502C30.8673 33.3502 31.6173 34.1002 31.6173 35.0168C31.6173 35.9335 30.8673 36.6835 29.9507 36.6835ZM40.0007 42.9335H35.0007C34.3173 42.9335 33.7507 42.3668 33.7507 41.6835C33.7507 41.0002 34.3173 40.4335 35.0007 40.4335H40.0007C40.684 40.4335 41.2507 41.0002 41.2507 41.6835C41.2507 42.3668 40.684 42.9335 40.0007 42.9335ZM40.0007 36.2668H35.0007C34.3173 36.2668 33.7507 35.7002 33.7507 35.0168C33.7507 34.3335 34.3173 33.7668 35.0007 33.7668H40.0007C40.684 33.7668 41.2507 34.3335 41.2507 35.0168C41.2507 35.7002 40.684 36.2668 40.0007 36.2668Z" fill="#2F8CFF"/>
<path d="M50.016 23.3335V25.8335C51.116 25.8335 52.166 26.2835 52.9327 27.0335C53.7327 27.8502 54.166 28.9002 54.166 30.0002V34.0335C54.166 35.2668 53.616 35.8335 52.366 35.8335H49.166V26.6835C49.166 26.2168 49.5493 25.8335 50.016 25.8335V23.3335ZM50.016 23.3335C48.166 23.3335 46.666 24.8335 46.666 26.6835V38.3335H52.366C54.9993 38.3335 56.666 36.6668 56.666 34.0335V30.0002C56.666 28.1668 55.916 26.5002 54.716 25.2835C53.4993 24.0835 51.8493 23.3502 50.016 23.3335C50.0327 23.3335 50.016 23.3335 50.016 23.3335Z" fill="#2F8CFF"/>
</svg>
