<svg width="80" height="80" viewBox="0 0 80 80" fill="none" xmlns="http://www.w3.org/2000/svg">
<rect width="80" height="80" rx="25" fill="#C5DFFF"/>
<path d="M42.425 15.1635C42.1316 15.1252 41.875 15.3569 41.875 15.6528V24.1236C41.875 24.3219 41.9935 24.4994 42.169 24.5917C43.66 25.3758 44.675 26.9415 44.675 28.75V33.75C44.675 36.325 42.575 38.45 40 38.45C37.4 38.45 35.3 36.325 35.3 33.75V28.75C35.3 26.9415 36.3371 25.3757 37.8309 24.5916C38.0065 24.4994 38.125 24.3219 38.125 24.1236V15.6534C38.125 15.3573 37.8687 15.1255 37.5751 15.164C33.371 15.7161 29.6012 17.6488 26.75 20.5C23.35 23.9 21.25 28.6 21.25 33.75V46.25C21.25 56.575 29.675 65 40 65C50.325 65 58.75 56.575 58.75 46.25V33.75C58.75 24.239 51.6115 16.3624 42.425 15.1635Z" fill="#2F8CFF"/>
</svg>
