<svg width="80" height="80" viewBox="0 0 80 80" fill="none" xmlns="http://www.w3.org/2000/svg">
<rect width="80" height="80" rx="25" fill="#C5DFFF"/>
<path d="M48.833 19.1667H31.1663C25.4163 19.1667 23.333 21.25 23.333 27.1042V52.8958C23.333 58.75 25.4163 60.8333 31.1663 60.8333H48.8122C54.583 60.8333 56.6663 58.75 56.6663 52.8958V27.1042C56.6663 21.25 54.583 19.1667 48.833 19.1667ZM39.9997 55.2083C37.9997 55.2083 36.3538 53.5625 36.3538 51.5625C36.3538 49.5625 37.9997 47.9167 39.9997 47.9167C41.9997 47.9167 43.6455 49.5625 43.6455 51.5625C43.6455 53.5625 41.9997 55.2083 39.9997 55.2083ZM44.1663 28.0208H35.833C34.9788 28.0208 34.2705 27.3125 34.2705 26.4583C34.2705 25.6042 34.9788 24.8958 35.833 24.8958H44.1663C45.0205 24.8958 45.7288 25.6042 45.7288 26.4583C45.7288 27.3125 45.0205 28.0208 44.1663 28.0208Z" fill="#2F8CFF"/>
</svg>
