<svg width="80" height="80" viewBox="0 0 80 80" fill="none" xmlns="http://www.w3.org/2000/svg">
<rect width="80" height="80" rx="25" fill="#C5DFFF"/>
<path d="M44.4371 38.625C45.2496 35.2083 42.2704 32.2292 38.8538 33.0417C37.2496 33.4375 35.9371 34.75 35.5413 36.3542C34.7288 39.7708 37.7079 42.75 41.1246 41.9375C42.7496 41.5417 44.0621 40.2292 44.4371 38.625Z" fill="#2F8CFF"/>
<path d="M27.5417 52.4375C27.1667 52.4375 26.7708 52.2917 26.4792 52.0208C22.4375 48.2708 20.125 42.9792 20.125 37.4792C20.125 26.5208 29.0417 17.6042 40 17.6042C50.9583 17.6042 59.875 26.5208 59.875 37.4792C59.875 43.0208 57.6458 48.1458 53.6042 51.9583C52.9792 52.5417 51.9792 52.5208 51.3958 51.8958C50.8125 51.2708 50.8333 50.2708 51.4583 49.6875C54.875 46.4792 56.75 42.1667 56.75 37.5C56.75 28.2708 49.2292 20.75 40 20.75C30.7708 20.75 23.25 28.2708 23.25 37.5C23.25 42.2083 25.1458 46.5417 28.6042 49.75C29.2292 50.3333 29.2708 51.3333 28.6875 51.9583C28.375 52.2708 27.9583 52.4375 27.5417 52.4375Z" fill="#2F8CFF"/>
<path d="M48.333 46.875C47.958 46.875 47.5622 46.7292 47.2705 46.4583C46.6455 45.875 46.6038 44.875 47.208 44.25C48.9372 42.4167 49.8955 40 49.8955 37.5C49.8955 32.0417 45.458 27.625 40.0205 27.625C34.583 27.625 30.1455 32.0625 30.1455 37.5C30.1455 40.0208 31.1038 42.4167 32.833 44.25C33.4163 44.875 33.3955 45.875 32.7705 46.4583C32.1455 47.0625 31.1455 47.0208 30.5622 46.3958C28.2913 43.9792 27.0205 40.8125 27.0205 37.5C27.0205 30.3333 32.8538 24.5 40.0205 24.5C47.1872 24.5 53.0205 30.3333 53.0205 37.5C53.0205 40.8125 51.7705 43.9792 49.4788 46.3958C49.1663 46.7083 48.7497 46.875 48.333 46.875Z" fill="#2F8CFF"/>
<path d="M36.458 49.7083L33.458 53.4375C31.083 56.4167 33.208 60.8333 36.9997 60.8333H42.9788C46.7913 60.8333 48.9163 56.4167 46.5205 53.4583L43.5205 49.7292C41.7288 47.4375 38.2705 47.4375 36.458 49.7083Z" fill="#2F8CFF"/>
</svg>
