<svg width="40" height="40" viewBox="0 0 40 40" fill="none" xmlns="http://www.w3.org/2000/svg">
<path d="M28.3334 36.6667H11.6667C10.9834 36.6667 10.4167 36.1 10.4167 35.4167C10.4167 34.7334 10.9834 34.1667 11.6667 34.1667H28.3334C29.0167 34.1667 29.5834 34.7334 29.5834 35.4167C29.5834 36.1 29.0167 36.6667 28.3334 36.6667Z" fill="#2F8CFF"/>
<path d="M33.9168 9.20002L27.2501 13.9667C26.3668 14.6 25.1001 14.2167 24.7168 13.2L21.5668 4.80002C21.0335 3.35002 18.9835 3.35002 18.4501 4.80002L15.2835 13.1834C14.9001 14.2167 13.6501 14.6 12.7668 13.95L6.10012 9.18336C4.76679 8.25002 3.00012 9.56669 3.55012 11.1167L10.4835 30.5334C10.7168 31.2 11.3501 31.6334 12.0501 31.6334H27.9335C28.6335 31.6334 29.2668 31.1834 29.5001 30.5334L36.4335 11.1167C37.0001 9.56669 35.2335 8.25002 33.9168 9.20002ZM24.1668 24.5834H15.8335C15.1501 24.5834 14.5835 24.0167 14.5835 23.3334C14.5835 22.65 15.1501 22.0834 15.8335 22.0834H24.1668C24.8501 22.0834 25.4168 22.65 25.4168 23.3334C25.4168 24.0167 24.8501 24.5834 24.1668 24.5834Z" fill="#2F8CFF"/>
</svg>
