<svg width="40" height="40" viewBox="0 0 40 40" fill="none" xmlns="http://www.w3.org/2000/svg">
<path d="M28.05 26.0667C29.1667 25.3333 30.6334 26.1333 30.6334 27.4667V29.6167C30.6334 31.7333 28.9834 34 27 34.6667L21.6834 36.4333C20.75 36.75 19.2334 36.75 18.3167 36.4333L13 34.6667C11 34 9.3667 31.7333 9.3667 29.6167V27.45C9.3667 26.1333 10.8334 25.3333 11.9334 26.05L15.3667 28.2833C16.6834 29.1667 18.35 29.6 20.0167 29.6C21.6834 29.6 23.35 29.1667 24.6667 28.2833L28.05 26.0667Z" fill="#2F8CFF"/>
<path d="M33.3 10.7667L23.3167 4.21666C21.5167 3.03333 18.55 3.03333 16.75 4.21666L6.7167 10.7667C3.50003 12.85 3.50003 17.5667 6.7167 19.6667L9.38337 21.4L16.75 26.2C18.55 27.3833 21.5167 27.3833 23.3167 26.2L30.6334 21.4L32.9167 19.9V25C32.9167 25.6833 33.4834 26.25 34.1667 26.25C34.85 26.25 35.4167 25.6833 35.4167 25V16.8C36.0834 14.65 35.4 12.15 33.3 10.7667Z" fill="#2F8CFF"/>
</svg>
