<svg width="40" height="40" viewBox="0 0 40 40" fill="none" xmlns="http://www.w3.org/2000/svg">
<path d="M18.7499 10V33.1834C18.7499 34.3667 17.5499 35.1834 16.4666 34.7334C13.3666 33.4334 9.51659 32.3 6.78325 31.9334L6.26659 31.8667C4.64992 31.6667 3.33325 30.1834 3.33325 28.5667V8.75003C3.33325 6.75003 4.94992 5.13336 6.94992 5.13336H7.06658C10.1999 5.40003 14.8166 6.8667 17.8666 8.5167C18.4166 8.8167 18.7499 9.36669 18.7499 10Z" fill="#2F8CFF"/>
<path d="M33.05 5.13336H32.95C32.55 5.1667 32.1167 5.2167 31.6667 5.30003C29.6167 5.63336 27.1833 6.33336 25 7.20003C23.9667 7.6167 23 8.0667 22.15 8.5167C21.6 8.8167 21.25 9.38336 21.25 10V33.1834C21.25 34.3667 22.45 35.1834 23.5333 34.7334C26.6333 33.4334 30.4833 32.3 33.2167 31.9334L33.7333 31.8667C35.35 31.6667 36.6667 30.1834 36.6667 28.5667V8.75003C36.6667 6.75003 35.05 5.13336 33.05 5.13336ZM32.1167 22.8834C32.1167 23.5334 31.65 23.8167 31.0833 23.5L29.3167 22.5167C29.1333 22.4167 28.8333 22.4167 28.6333 22.5167L26.8667 23.5C26.3 23.8167 25.8333 23.5334 25.8333 22.8834V17.7667C25.8333 17 26.4667 16.3667 27.2333 16.3667H30.7333C31.5 16.3667 32.1333 17 32.1333 17.7667V22.8834H32.1167Z" fill="#2F8CFF"/>
</svg>
