<svg width="50" height="50" viewBox="0 0 50 50" fill="none" xmlns="http://www.w3.org/2000/svg">
<circle cx="25" cy="25" r="25" fill="#2F8CFF" fill-opacity="0.05"/>
<path d="M34.5599 23.7386L33.1999 22.1586C32.9399 21.8586 32.7299 21.2986 32.7299 20.8986V19.1986C32.7299 18.1386 31.8599 17.2686 30.7999 17.2686H29.0999C28.7099 17.2686 28.1399 17.0586 27.8399 16.7986L26.2599 15.4386C25.5699 14.8486 24.4399 14.8486 23.7399 15.4386L22.1699 16.8086C21.8699 17.0586 21.2999 17.2686 20.9099 17.2686H19.1799C18.1199 17.2686 17.2499 18.1386 17.2499 19.1986V20.9086C17.2499 21.2986 17.0399 21.8586 16.7899 22.1586L15.4399 23.7486C14.8599 24.4386 14.8599 25.5586 15.4399 26.2486L16.7899 27.8386C17.0399 28.1386 17.2499 28.6986 17.2499 29.0886V30.7986C17.2499 31.8586 18.1199 32.7286 19.1799 32.7286H20.9099C21.2999 32.7286 21.8699 32.9386 22.1699 33.1986L23.7499 34.5586C24.4399 35.1486 25.5699 35.1486 26.2699 34.5586L27.8499 33.1986C28.1499 32.9386 28.7099 32.7286 29.1099 32.7286H30.8099C31.8699 32.7286 32.7399 31.8586 32.7399 30.7986V29.0986C32.7399 28.7086 32.9499 28.1386 33.2099 27.8386L34.5699 26.2586C35.1499 25.5686 35.1499 24.4286 34.5599 23.7386ZM29.1599 23.1086L24.3299 27.9386C24.1899 28.0786 23.9999 28.1586 23.7999 28.1586C23.5999 28.1586 23.4099 28.0786 23.2699 27.9386L20.8499 25.5186C20.5599 25.2286 20.5599 24.7486 20.8499 24.4586C21.1399 24.1686 21.6199 24.1686 21.9099 24.4586L23.7999 26.3486L28.0999 22.0486C28.3899 21.7586 28.8699 21.7586 29.1599 22.0486C29.4499 22.3386 29.4499 22.8186 29.1599 23.1086Z" fill="#2F8CFF"/>
</svg>
