<svg width="20" height="20" viewBox="0 0 20 20" fill="none" xmlns="http://www.w3.org/2000/svg">
<path d="M14.4082 3.45012L14.3499 6.60845C14.3416 7.04178 14.6166 7.61678 14.9666 7.87512L17.0332 9.44178C18.3582 10.4418 18.1416 11.6668 16.5582 12.1668L13.8666 13.0085C13.4166 13.1501 12.9416 13.6418 12.8249 14.1001L12.1832 16.5501C11.6749 18.4835 10.4082 18.6751 9.35823 16.9751L7.89157 14.6001C7.6249 14.1668 6.99157 13.8418 6.49157 13.8668L3.70823 14.0085C1.71657 14.1085 1.1499 12.9585 2.4499 11.4418L4.0999 9.52512C4.40823 9.16678 4.5499 8.50012 4.40823 8.05012L3.55823 5.35012C3.06657 3.76678 3.9499 2.89178 5.5249 3.40845L7.98323 4.21678C8.3999 4.35012 9.0249 4.25845 9.3749 4.00012L11.9416 2.15012C13.3332 1.15845 14.4416 1.74178 14.4082 3.45012Z" fill="#FFB400"/>
<path d="M17.8664 17.0583L15.3414 14.5333C15.0998 14.2916 14.6998 14.2916 14.4581 14.5333C14.2164 14.775 14.2164 15.175 14.4581 15.4166L16.9831 17.9416C17.1081 18.0666 17.2664 18.125 17.4248 18.125C17.5831 18.125 17.7414 18.0666 17.8664 17.9416C18.1081 17.7 18.1081 17.3 17.8664 17.0583Z" fill="#FFB400"/>
</svg>
