<svg width="40" height="40" viewBox="0 0 40 40" fill="none" xmlns="http://www.w3.org/2000/svg">
<path d="M26.9833 3.33331H13.0166C6.94992 3.33331 3.33325 6.94998 3.33325 13.0166V26.9833C3.33325 33.05 6.94992 36.6666 13.0166 36.6666H26.9833C33.0499 36.6666 36.6666 33.05 36.6666 26.9833V13.0166C36.6666 6.94998 33.0499 3.33331 26.9833 3.33331ZM16.6166 24.8333L12.8666 28.5833C12.6166 28.8333 12.2999 28.95 11.9833 28.95C11.6666 28.95 11.3333 28.8333 11.0999 28.5833L9.84992 27.3333C9.34992 26.85 9.34992 26.05 9.84992 25.5666C10.3333 25.0833 11.1166 25.0833 11.6166 25.5666L11.9833 25.9333L14.8499 23.0666C15.3333 22.5833 16.1166 22.5833 16.6166 23.0666C17.0999 23.55 17.0999 24.35 16.6166 24.8333ZM16.6166 13.1666L12.8666 16.9166C12.6166 17.1666 12.2999 17.2833 11.9833 17.2833C11.6666 17.2833 11.3333 17.1666 11.0999 16.9166L9.84992 15.6666C9.34992 15.1833 9.34992 14.3833 9.84992 13.9C10.3333 13.4166 11.1166 13.4166 11.6166 13.9L11.9833 14.2666L14.8499 11.4C15.3333 10.9166 16.1166 10.9166 16.6166 11.4C17.0999 11.8833 17.0999 12.6833 16.6166 13.1666ZM29.2666 27.7H20.5166C19.8333 27.7 19.2666 27.1333 19.2666 26.45C19.2666 25.7666 19.8333 25.2 20.5166 25.2H29.2666C29.9666 25.2 30.5166 25.7666 30.5166 26.45C30.5166 27.1333 29.9666 27.7 29.2666 27.7ZM29.2666 16.0333H20.5166C19.8333 16.0333 19.2666 15.4666 19.2666 14.7833C19.2666 14.1 19.8333 13.5333 20.5166 13.5333H29.2666C29.9666 13.5333 30.5166 14.1 30.5166 14.7833C30.5166 15.4666 29.9666 16.0333 29.2666 16.0333Z" fill="#2F8CFF"/>
</svg>
