<svg width="40" height="40" viewBox="0 0 40 40" fill="none" xmlns="http://www.w3.org/2000/svg">
<path d="M34.8333 16.4167L35.8166 32.9C35.85 33.35 35.6333 33.65 35.5166 33.7833C35.3833 33.9333 35.1 34.1667 34.6333 34.1667H30.0833L33.6833 16.4167H34.8333ZM36.6666 10L36.65 10.0333C36.6833 10.4333 36.65 10.85 36.55 11.2667L24.2666 33.8167C23.8666 35.5 22.3666 36.6667 20.6333 36.6667H34.6333C36.7833 36.6667 38.4833 34.85 38.3166 32.7L36.6666 10Z" fill="#2F8CFF"/>
<path d="M19.0836 3.73335C19.2502 3.06668 18.8336 2.38335 18.1669 2.21668C17.5002 2.06668 16.8169 2.46668 16.6502 3.13335L15.8169 6.58335H18.3836L19.0836 3.73335Z" fill="#2F8CFF"/>
<path d="M30.0833 3.68336C30.2333 3.00003 29.8 2.35003 29.1166 2.20003C28.45 2.05003 27.7833 2.48336 27.6333 3.16669L26.8833 6.61669H29.45L30.0833 3.68336Z" fill="#2F8CFF"/>
<path d="M36.3666 8.88332C35.8166 7.54998 34.5166 6.59998 32.9166 6.59998H29.4499L28.5166 10.9167C28.3832 11.5 27.8666 11.9 27.2999 11.9C27.2166 11.9 27.1166 11.9 27.0332 11.8666C26.3666 11.7166 25.9333 11.05 26.0666 10.3833L26.8832 6.58332H18.3832L17.3332 10.9167C17.1999 11.4833 16.6833 11.8666 16.1166 11.8666C16.0166 11.8666 15.9166 11.85 15.8166 11.8333C15.1499 11.6666 14.7332 11 14.8999 10.3166L15.7999 6.56665H12.4166C10.7832 6.56665 9.33325 7.63332 8.84992 9.19998L1.83325 31.7833C1.09992 34.2 2.88325 36.6666 5.39992 36.6666H27.2999C29.0332 36.6666 30.5332 35.5 30.9332 33.8166L36.5499 11.2667C36.6499 10.85 36.6832 10.4333 36.6499 10.0333C36.6166 9.63332 36.5332 9.23332 36.3666 8.88332ZM24.4999 27.9166H11.1666C10.4832 27.9166 9.91658 27.35 9.91658 26.6666C9.91658 25.9833 10.4832 25.4166 11.1666 25.4166H24.4999C25.1833 25.4166 25.7499 25.9833 25.7499 26.6666C25.7499 27.35 25.1833 27.9166 24.4999 27.9166ZM26.1666 21.25H12.8332C12.1499 21.25 11.5832 20.6833 11.5832 20C11.5832 19.3166 12.1499 18.75 12.8332 18.75H26.1666C26.8499 18.75 27.4166 19.3166 27.4166 20C27.4166 20.6833 26.8499 21.25 26.1666 21.25Z" fill="#2F8CFF"/>
</svg>
